<?xml version="1.0" encoding="UTF-8"?>
<svg viewBox="0 0 48 48" xmlns="http://www.w3.org/2000/svg">
  <!-- Definições de gradientes e filtros -->
  <defs>
    <linearGradient id="capGradient" x1="0%" y1="0%" x2="100%" y2="100%">
      <stop offset="0%" stop-color="#e11d48">
        <animate attributeName="stop-color" values="#e11d48; #fbbf24; #f97316; #e11d48" dur="6s" repeatCount="indefinite" />
      </stop>
      <stop offset="50%" stop-color="#fbbf24">
        <animate attributeName="stop-color" values="#fbbf24; #f97316; #e11d48; #fbbf24" dur="6s" repeatCount="indefinite" />
      </stop>
      <stop offset="100%" stop-color="#f97316">
        <animate attributeName="stop-color" values="#f97316; #e11d48; #fbbf24; #f97316" dur="6s" repeatCount="indefinite" />
      </stop>
    </linearGradient>
    <filter id="glow" x="-20%" y="-20%" width="140%" height="140%">
      <feGaussianBlur stdDeviation="1" result="blur" />
      <feFlood flood-color="#e11d48" flood-opacity="0.3" result="color" />
      <feComposite in="color" in2="blur" operator="in" result="glow" />
      <feMerge>
        <feMergeNode in="glow" />
        <feMergeNode in="SourceGraphic" />
      </feMerge>
    </filter>
  </defs>

  <!-- Forma simplificada do capelo para o favicon -->
  <g transform="translate(24, 24)">
    <!-- Animação de pulsação sutil -->
    <animateTransform 
      attributeName="transform"
      type="scale"
      values="1; 1.05; 1"
      dur="2s"
      repeatCount="indefinite"
      additive="sum"
      calcMode="spline"
      keySplines="0.4 0 0.6 1; 0.4 0 0.6 1"/>

    <!-- Versão simplificada do capelo para o favicon -->
    <path d="M 24 4 C 23 4, 18 5, 14 6 C 10 7, 6 8, 5 8 C -2 10, -18 14, -20 15 L -22 15 -24 20 C -25 22, -26 24, -26 24 C -27 24, -27 23, -26 22 C -26 22, -26 22, -26 22 C -26 22, -27 22, -27 22 C -28 23, -28 23, -28 24 C -28 24, -28 25, -28 26 L -28 26 -28 26 C -29 25, -29 24, -29 22 C -29 21, -29 21, -29 21 C -29 21, -30 21, -30 22 C -32 22, -32 22, -32 24 C -31 25, -30 27, -30 28 C -30 29, -30 29, -30 28 C -31 28, -32 27, -32 26 C -33 25, -33 25, -33 25 C -33 25, -34 27, -34 28 C -34 28, -33 30, -32 31 C -32 31, -31 32, -31 32 L -32 33 C -32 34, -34 36, -35 39 C -37 41, -38 44, -38 44 C -38 44, -37 45, -37 45 C -37 45, -35 45, -33 45 C -24 43, -23 43, -23 43 C -23 43, -19 50, -18 53 C -18 54, -17 55, -17 55 C -16 56, -15 57, -13 57 C -12 58, -9 58, -8 58 C -1 57, 6 54, 12 49 C 14 48, 17 45, 18 44 C 20 42, 21 40, 21 38 C 21 37, 21 36, 20 35 C 19 31, 16 25, 16 25 C 16 25, 18 22, 20 18 C 22 15, 24 12, 24 12 C 24 12, 24 11, 24 11 C 23 10, 24 10, 22 10" 
          transform="scale(0.6)" 
          fill="url(#capGradient)" 
          filter="url(#glow)"/>
  </g>
</svg> 