<?xml version="1.0" encoding="UTF-8"?>
<svg viewBox="0 0 24 24" xmlns="http://www.w3.org/2000/svg">
  <!-- Definições de gradientes e filtros -->
  <defs>
    <linearGradient id="capGradient" x1="0%" y1="0%" x2="100%" y2="100%">
      <stop offset="0%" stop-color="#e11d48">
        <animate attributeName="stop-color" values="#e11d48; #fbbf24; #f97316; #e11d48" dur="6s" repeatCount="indefinite" />
      </stop>
      <stop offset="50%" stop-color="#fbbf24">
        <animate attributeName="stop-color" values="#fbbf24; #f97316; #e11d48; #fbbf24" dur="6s" repeatCount="indefinite" />
      </stop>
      <stop offset="100%" stop-color="#f97316">
        <animate attributeName="stop-color" values="#f97316; #e11d48; #fbbf24; #f97316" dur="6s" repeatCount="indefinite" />
      </stop>
    </linearGradient>
    <filter id="glow" x="-20%" y="-20%" width="140%" height="140%">
      <feGaussianBlur stdDeviation="0.8" result="blur" />
      <feFlood flood-color="#e11d48" flood-opacity="0.3" result="color" />
      <feComposite in="color" in2="blur" operator="in" result="glow" />
      <feMerge>
        <feMergeNode in="glow" />
        <feMergeNode in="SourceGraphic" />
      </feMerge>
    </filter>
  </defs>

  <!-- Versão simplificada do capelo para ícone -->
  <g transform="translate(12, 12)">
    <!-- Versão simplificada do capelo para o ícone -->
    <path d="M 12 2 C 11.5 2, 9 2.5, 7 3 C 5 3.5, 3 4, 2.5 4 C -1 5, -9 7, -10 7.5 L -11 7.5 -12 10 C -12.5 11, -13 12, -13 12 C -13.5 12, -13.5 11.5, -13 11 C -13 11, -13 11, -13 11 C -13 11, -13.5 11, -13.5 11 C -14 11.5, -14 11.5, -14 12 C -14 12, -14 12.5, -14 13 L -14 13 -14 13 C -14.5 12.5, -14.5 12, -14.5 11 C -14.5 10.5, -14.5 10.5, -14.5 10.5 C -14.5 10.5, -15 10.5, -15 11 C -16 11, -16 11, -16 12 C -15.5 12.5, -15 13.5, -15 14 C -15 14.5, -15 14.5, -15 14 C -15.5 14, -16 13.5, -16 13 C -16.5 12.5, -16.5 12.5, -16.5 12.5 C -16.5 12.5, -17 13.5, -17 14 C -17 14, -16.5 15, -16 15.5 C -16 15.5, -15.5 16, -15.5 16 L -16 16.5 C -16 17, -17 18, -17.5 19.5 C -18.5 20.5, -19 22, -19 22 C -19 22, -18.5 22.5, -18.5 22.5 C -18.5 22.5, -17.5 22.5, -16.5 22.5 C -12 21.5, -11.5 21.5, -11.5 21.5 C -11.5 21.5, -9.5 25, -9 26.5 C -9 27, -8.5 27.5, -8.5 27.5 C -8 28, -7.5 28.5, -6.5 28.5 C -6 29, -4.5 29, -4 29 C -0.5 28.5, 3 27, 6 24.5 C 7 24, 8.5 22.5, 9 22 C 10 21, 10.5 20, 10.5 19 C 10.5 18.5, 10.5 18, 10 17.5 C 9.5 15.5, 8 12.5, 8 12.5 C 8 12.5, 9 11, 10 9 C 11 7.5, 12 6, 12 6 C 12 6, 12 5.5, 12 5.5 C 11.5 5, 12 5, 11 5" 
          transform="scale(0.45)" 
          fill="url(#capGradient)" 
          filter="url(#glow)"/>
  </g>
</svg> 